<svg xmlns="http://www.w3.org/2000/svg" xmlns:xlink="http://www.w3.org/1999/xlink" width="500" zoomAndPan="magnify" viewBox="0 0 375 374.999991" height="500" preserveAspectRatio="xMidYMid meet" version="1.0"><defs><g/><clipPath id="a81c6bb6a3"><path d="M 144 148 L 164 148 L 164 162 L 144 162 Z M 144 148 " clip-rule="nonzero"/></clipPath><clipPath id="b29cdf4c58"><path d="M 146.402344 146.089844 L 164.542969 150.84375 L 161.5 162.453125 L 143.363281 157.699219 Z M 146.402344 146.089844 " clip-rule="nonzero"/></clipPath><clipPath id="588a9a7f7b"><path d="M 146.402344 146.089844 L 164.542969 150.84375 L 161.5 162.453125 L 143.363281 157.699219 Z M 146.402344 146.089844 " clip-rule="nonzero"/></clipPath><clipPath id="0f0bb9999b"><path d="M 145 146 L 163 146 L 163 160 L 145 160 Z M 145 146 " clip-rule="nonzero"/></clipPath><clipPath id="ee0da977d8"><path d="M 146.402344 146.089844 L 164.542969 150.84375 L 161.5 162.453125 L 143.363281 157.699219 Z M 146.402344 146.089844 " clip-rule="nonzero"/></clipPath><clipPath id="9bc9cffe50"><path d="M 146.402344 146.089844 L 164.542969 150.84375 L 161.5 162.453125 L 143.363281 157.699219 Z M 146.402344 146.089844 " clip-rule="nonzero"/></clipPath><clipPath id="0010866a89"><path d="M 122 140 L 141 140 L 141 223 L 122 223 Z M 122 140 " clip-rule="nonzero"/></clipPath><clipPath id="3ae5f4f598"><path d="M 109.042969 145.972656 L 137.300781 138.414062 L 157.839844 215.214844 L 129.582031 222.773438 Z M 109.042969 145.972656 " clip-rule="nonzero"/></clipPath><clipPath id="3c7c4bcbcf"><path d="M 109.042969 145.972656 L 137.300781 138.414062 L 157.839844 215.214844 L 129.582031 222.773438 Z M 109.042969 145.972656 " clip-rule="nonzero"/></clipPath><clipPath id="87aa4c8366"><path d="M 109.046875 145.980469 L 137.085938 138.484375 L 157.597656 215.195312 L 129.558594 222.695312 Z M 109.046875 145.980469 " clip-rule="nonzero"/></clipPath><clipPath id="813e8dfe0e"><path d="M 109.046875 145.980469 L 137.054688 138.492188 L 157.566406 215.203125 L 129.558594 222.695312 Z M 109.046875 145.980469 " clip-rule="nonzero"/></clipPath></defs><path stroke-linecap="round" transform="matrix(0.75, 0, 0, 0.75, 21.830441, 221.211254)" fill="none" stroke-linejoin="miter" d="M 2.00212 1.999578 L 144.715671 1.999578 " stroke="#bae72a" stroke-width="4" stroke-opacity="1" stroke-miterlimit="4"/><g clip-path="url(#a81c6bb6a3)"><g clip-path="url(#b29cdf4c58)"><g clip-path="url(#588a9a7f7b)"><path fill="#ffffff" d="M 162.925781 152.59375 L 162.914062 152.621094 L 160.273438 159.933594 L 160.15625 160.269531 L 159.828125 160.132812 L 159.582031 160.035156 C 159.089844 159.835938 158.597656 159.667969 158.121094 159.542969 C 155.8125 158.941406 154.203125 159.351562 153.453125 159.652344 L 152.585938 159.492188 L 152.582031 159.492188 L 151.75 159.203125 C 151.238281 158.574219 150.039062 157.429688 147.734375 156.824219 C 147.253906 156.699219 146.746094 156.601562 146.21875 156.535156 L 145.957031 156.5 L 145.601562 156.457031 L 145.664062 156.105469 L 146.949219 148.441406 L 146.953125 148.410156 L 145.875 148.125 L 144.753906 156.898438 L 151.664062 160.042969 L 153.113281 160.425781 L 160.679688 161.070312 L 164 152.875 L 162.925781 152.59375 " fill-opacity="1" fill-rule="nonzero"/></g></g></g><g clip-path="url(#0f0bb9999b)"><g clip-path="url(#ee0da977d8)"><g clip-path="url(#9bc9cffe50)"><path fill="#ffffff" d="M 148.300781 148.28125 L 148.230469 148.722656 L 147.257812 154.691406 L 147.441406 154.769531 C 147.476562 154.785156 150.039062 155.894531 151.484375 157.734375 C 150.726562 157.105469 149.59375 156.429688 147.964844 156.003906 C 147.539062 155.890625 147.082031 155.796875 146.589844 155.726562 L 147.78125 148.625 L 147.851562 148.207031 C 148.011719 148.226562 148.15625 148.253906 148.300781 148.28125 Z M 152.789062 149.4375 C 153.820312 150.382812 154.265625 151.277344 154.386719 151.558594 L 152.570312 158.507812 C 151.507812 156.210938 148.597656 154.742188 147.824219 154.382812 L 148.734375 148.800781 L 148.976562 147.3125 C 150.730469 147.863281 151.953125 148.667969 152.789062 149.4375 Z M 154.898438 151.695312 C 155.144531 151.507812 155.972656 150.945312 157.335938 150.628906 C 158.441406 150.367188 159.902344 150.265625 161.699219 150.644531 L 161.179688 152.058594 L 159.234375 157.375 C 158.386719 157.304688 155.132812 157.160156 153.078125 158.640625 Z M 161.660156 152.238281 L 161.8125 151.820312 C 161.949219 151.867188 162.09375 151.917969 162.238281 151.972656 L 162.09375 152.375 L 159.65625 159.148438 C 159.1875 158.96875 158.746094 158.828125 158.320312 158.714844 C 156.691406 158.289062 155.375 158.320312 154.402344 158.496094 C 156.5625 157.605469 159.34375 157.894531 159.378906 157.898438 L 159.578125 157.921875 Z M 145.996094 156.164062 L 146.261719 156.199219 C 148.070312 156.425781 149.390625 156.964844 150.332031 157.546875 C 150.425781 157.601562 150.515625 157.660156 150.601562 157.71875 C 150.683594 157.773438 150.765625 157.832031 150.84375 157.890625 C 150.921875 157.949219 150.996094 158.003906 151.070312 158.0625 C 151.425781 158.347656 151.699219 158.621094 151.902344 158.855469 C 151.941406 158.902344 151.980469 158.949219 152.011719 158.992188 L 153.328125 159.335938 C 153.378906 159.3125 153.433594 159.292969 153.492188 159.273438 C 153.78125 159.167969 154.15625 159.0625 154.605469 158.988281 C 154.695312 158.972656 154.789062 158.960938 154.882812 158.949219 C 154.980469 158.9375 155.078125 158.925781 155.183594 158.917969 C 155.285156 158.910156 155.390625 158.902344 155.5 158.898438 C 156.605469 158.855469 158.019531 159.03125 159.707031 159.71875 L 159.957031 159.820312 L 162.59375 152.503906 L 162.890625 151.675781 L 162.660156 151.585938 C 162.425781 151.496094 162.203125 151.414062 161.988281 151.339844 L 162.375 150.277344 L 162.097656 150.210938 C 159.648438 149.636719 157.78125 149.898438 156.503906 150.316406 C 155.667969 150.59375 155.085938 150.933594 154.769531 151.15625 L 154.765625 151.15625 C 154.597656 150.808594 154.257812 150.222656 153.664062 149.570312 C 152.757812 148.582031 151.257812 147.4375 148.84375 146.738281 L 148.566406 146.65625 L 148.382812 147.777344 C 148.160156 147.734375 147.925781 147.699219 147.675781 147.664062 L 147.429688 147.628906 L 147.285156 148.496094 L 145.996094 156.164062 " fill-opacity="1" fill-rule="nonzero"/></g></g></g><g clip-path="url(#0010866a89)"><g clip-path="url(#3ae5f4f598)"><g clip-path="url(#3c7c4bcbcf)"><g clip-path="url(#87aa4c8366)"><g clip-path="url(#813e8dfe0e)"><path fill="#ffffff" d="M 138.042969 147.710938 C 138.515625 149.183594 138.617188 150.78125 138.707031 152.320312 C 139.128906 154.941406 139.042969 157.582031 139.175781 160.222656 C 139.476562 163.480469 139.210938 166.734375 138.960938 169.984375 C 138.816406 169.972656 138.671875 169.960938 138.53125 169.929688 C 138.386719 168.09375 138 166.277344 137.980469 164.433594 C 138.007812 163.238281 138.015625 162.039062 137.921875 160.84375 C 137.738281 159.117188 137.78125 157.390625 137.703125 155.664062 C 137.546875 153.570312 137.289062 151.484375 137.050781 149.398438 C 136.789062 148.648438 135.746094 148.835938 135.117188 148.710938 C 134.90625 148.6875 134.660156 148.671875 134.417969 148.691406 C 134.285156 148.570312 134.117188 148.480469 133.933594 148.417969 C 133.515625 148.246094 133.089844 148.117188 132.660156 148.011719 C 132.792969 147.640625 132.726562 147.121094 132.6875 146.652344 C 132.800781 146.660156 132.925781 146.65625 133.054688 146.617188 C 133.785156 146.679688 134.507812 146.78125 135.234375 146.847656 C 135.953125 147 137.980469 146.804688 138.042969 147.710938 Z M 133.617188 152.6875 C 133.988281 155.195312 134.160156 157.703125 134.128906 160.234375 C 133.003906 160.042969 131.878906 159.855469 130.742188 159.769531 C 128.949219 159.535156 127.742188 159.492188 126.292969 159.882812 C 125.8125 160.007812 125.308594 160.183594 124.746094 160.414062 C 124.910156 158.316406 124.480469 156.273438 124.34375 154.191406 C 124.339844 152.554688 124.394531 150.910156 124.546875 149.28125 C 127.375 148.898438 130.457031 148.359375 133.152344 149.585938 C 133.546875 150.558594 133.457031 151.660156 133.617188 152.6875 Z M 133.644531 168.390625 C 133.6875 170.34375 134.007812 172.285156 133.90625 174.242188 C 133.808594 176.851562 134.140625 179.445312 134.148438 182.050781 C 133.996094 183.933594 134.066406 185.816406 134.074219 187.699219 C 133.832031 192.074219 134.023438 196.453125 134.125 200.832031 C 134.070312 202.53125 134.074219 204.234375 134.097656 205.9375 C 134.121094 206.046875 134.121094 206.183594 134.121094 206.328125 C 131.867188 205.753906 129.507812 205.84375 127.222656 206.1875 C 127.328125 205.414062 127.140625 204.277344 127.222656 203.773438 C 127.195312 201.523438 127.136719 199.269531 127.113281 197.019531 C 126.71875 191.265625 126.710938 185.484375 126.472656 179.71875 C 126.582031 176.953125 126.257812 174.195312 126.222656 171.433594 C 126.316406 168.667969 126.253906 165.882812 125.917969 163.140625 C 125.890625 162.769531 125.878906 161.972656 125.730469 161.390625 C 126.863281 160.964844 128.355469 160.449219 130.179688 160.667969 C 131.25 160.75 132.3125 160.925781 133.375 161.082031 C 133.378906 161.128906 133.382812 161.175781 133.402344 161.226562 C 133.6875 163.597656 133.617188 166.003906 133.644531 168.390625 Z M 131.695312 216.804688 C 131.535156 216.800781 131.328125 216.777344 131.09375 216.75 C 130.929688 216.65625 130.6875 216.65625 130.449219 216.675781 C 129.941406 216.628906 129.417969 216.625 129.0625 216.789062 C 129.152344 216.414062 128.941406 215.878906 128.933594 215.511719 C 128.722656 214.078125 128.554688 212.636719 128.203125 211.226562 C 127.867188 209.902344 127.800781 208.503906 127.445312 207.1875 C 129.496094 206.871094 131.648438 206.660156 133.597656 207.480469 C 133.683594 207.519531 133.769531 207.523438 133.855469 207.515625 C 133.460938 210.675781 132.433594 213.710938 131.695312 216.804688 Z M 130.589844 220.480469 C 130.527344 219.613281 130.441406 218.742188 130.414062 217.875 C 130.617188 217.890625 130.824219 217.910156 131.027344 217.925781 C 130.917969 218.78125 130.820312 219.640625 130.589844 220.480469 Z M 127.417969 142.296875 C 128.523438 142.003906 129.6875 142.078125 130.824219 142.097656 C 130.992188 143.480469 131.167969 144.867188 131.253906 146.257812 C 131.363281 146.625 131.273438 147.273438 131.34375 147.777344 C 130.101562 147.640625 128.832031 147.714844 127.574219 147.917969 C 127.441406 147.933594 127.308594 147.949219 127.175781 147.960938 C 127.058594 146.078125 127.003906 144.148438 127.417969 142.296875 Z M 139.136719 146.917969 C 138.417969 146.074219 137.136719 146.222656 136.140625 146.019531 C 135.128906 145.960938 133.695312 145.480469 132.695312 145.71875 C 132.746094 144.410156 132.804688 143.066406 132.386719 141.804688 C 132.21875 141.230469 131.710938 140.886719 131.121094 140.925781 C 129.90625 140.949219 128.65625 140.714844 127.46875 141.054688 C 126.980469 141.195312 126.402344 141.449219 126.269531 141.988281 C 126.105469 142.839844 126.109375 143.71875 126.070312 144.585938 C 126.085938 145.132812 125.753906 147.015625 125.941406 148.007812 C 125.21875 148.023438 124.492188 148.039062 123.792969 148.214844 C 123.03125 148.390625 122.953125 149.082031 123.015625 149.742188 C 122.949219 151.304688 122.980469 152.863281 123.117188 154.417969 C 123.234375 156.503906 123.027344 158.601562 123.179688 160.675781 C 123.304688 161.902344 123.808594 162.015625 124.65625 161.769531 C 124.882812 164.660156 124.886719 167.597656 125.019531 170.511719 C 125.304688 173.628906 125.015625 176.769531 125.347656 179.890625 C 125.433594 184.703125 125.4375 189.519531 125.835938 194.328125 C 125.746094 197 125.957031 199.667969 125.90625 202.339844 C 125.910156 203.765625 125.902344 205.191406 126.027344 206.613281 C 126.035156 206.710938 126.085938 206.78125 126.148438 206.839844 C 126.445312 208.484375 126.894531 210.121094 127.070312 211.796875 C 127.1875 213.175781 127.5 214.523438 127.78125 215.875 C 127.929688 216.367188 127.882812 217.347656 128.644531 217.183594 C 128.664062 217.222656 128.648438 217.273438 128.636719 217.332031 C 128.644531 217.617188 128.902344 217.769531 129.15625 217.8125 C 129.144531 218.4375 129.367188 219.269531 129.34375 219.710938 C 129.601562 220.578125 129.269531 222.65625 130.675781 222.394531 C 131.917969 221.996094 131.929688 220.371094 132.109375 219.292969 C 132.121094 218.796875 132.253906 218.28125 132.273438 217.78125 C 132.835938 217.46875 132.910156 216.753906 133.167969 215.847656 C 134.03125 213.109375 134.5625 210.289062 135.039062 207.464844 C 135.167969 207.386719 135.269531 207.273438 135.277344 207.125 C 135.363281 205.980469 135.421875 204.835938 135.457031 203.6875 C 135.476562 200.929688 135.507812 198.164062 135.3125 195.414062 C 134.980469 192.609375 135.507812 189.804688 135.402344 186.988281 C 135.617188 184.007812 135.113281 181.089844 135.273438 178.097656 C 135.324219 176.183594 135.070312 174.28125 134.960938 172.378906 C 134.925781 170.476562 134.96875 168.585938 134.800781 166.691406 C 134.808594 164.875 134.648438 163.042969 134.359375 161.25 C 134.492188 161.257812 134.625 161.253906 134.75 161.195312 C 134.839844 161.199219 134.929688 161.191406 135.015625 161.167969 C 135.386719 161.070312 135.683594 160.71875 135.597656 160.320312 C 135.515625 159.375 135.460938 158.425781 135.402344 157.480469 C 135.308594 155.5 135.402344 153.511719 135.152344 151.539062 C 135.097656 151.027344 135.007812 150.515625 134.894531 150.011719 C 135.292969 149.976562 135.6875 149.914062 135.957031 149.9375 C 136.210938 151.871094 136.027344 153.863281 136.210938 155.8125 C 136.394531 158.488281 136.304688 161.175781 136.664062 163.839844 C 136.894531 165.660156 136.753906 167.5 136.929688 169.324219 C 136.972656 171 137.753906 171.101562 139.226562 171.09375 C 139.382812 171.09375 139.515625 171.074219 139.632812 171.042969 C 140.441406 170.828125 140.394531 169.972656 140.390625 169.160156 C 140.421875 167.960938 140.386719 166.757812 140.367188 165.554688 C 140.53125 162.449219 140.636719 159.351562 140.242188 156.25 C 140.136719 154.015625 140.339844 151.777344 139.839844 149.574219 C 139.679688 148.675781 139.6875 147.6875 139.136719 146.917969 " fill-opacity="1" fill-rule="nonzero"/></g></g></g></g></g><g fill="#bae72a" fill-opacity="1"><g transform="translate(158.95538, 209.957997)"><g><path d="M 30.25 -40.265625 C 35.175781 -40.265625 39.132812 -38.800781 42.125 -35.875 C 45.125 -32.957031 46.625 -28.550781 46.625 -22.65625 L 46.625 0 L 32.734375 0 L 32.734375 -20.390625 C 32.734375 -25.796875 30.566406 -28.5 26.234375 -28.5 C 23.847656 -28.5 21.9375 -27.71875 20.5 -26.15625 C 19.0625 -24.601562 18.34375 -22.265625 18.34375 -19.140625 L 18.34375 0 L 4.453125 0 L 4.453125 -39.609375 L 17.6875 -39.609375 L 17.6875 -35.296875 C 19.238281 -36.898438 21.085938 -38.128906 23.234375 -38.984375 C 25.378906 -39.835938 27.71875 -40.265625 30.25 -40.265625 Z M 30.25 -40.265625 "/></g></g></g><g fill="#bae72a" fill-opacity="1"><g transform="translate(204.25564, 209.957997)"><g><path d="M 24.328125 0.65625 C 20.097656 0.65625 16.273438 -0.21875 12.859375 -1.96875 C 9.453125 -3.726562 6.785156 -6.164062 4.859375 -9.28125 C 2.929688 -12.394531 1.96875 -15.925781 1.96875 -19.875 C 1.96875 -23.769531 2.929688 -27.273438 4.859375 -30.390625 C 6.785156 -33.515625 9.441406 -35.941406 12.828125 -37.671875 C 16.210938 -39.398438 20.046875 -40.265625 24.328125 -40.265625 C 28.617188 -40.265625 32.46875 -39.398438 35.875 -37.671875 C 39.289062 -35.941406 41.945312 -33.53125 43.84375 -30.4375 C 45.75 -27.34375 46.703125 -23.820312 46.703125 -19.875 C 46.703125 -15.925781 45.75 -12.394531 43.84375 -9.28125 C 41.945312 -6.164062 39.289062 -3.726562 35.875 -1.96875 C 32.46875 -0.21875 28.617188 0.65625 24.328125 0.65625 Z M 24.328125 -10.375 C 26.765625 -10.375 28.765625 -11.210938 30.328125 -12.890625 C 31.890625 -14.578125 32.671875 -16.90625 32.671875 -19.875 C 32.671875 -22.800781 31.890625 -25.09375 30.328125 -26.75 C 28.765625 -28.40625 26.765625 -29.234375 24.328125 -29.234375 C 21.898438 -29.234375 19.90625 -28.40625 18.34375 -26.75 C 16.78125 -25.09375 16 -22.800781 16 -19.875 C 16 -16.90625 16.78125 -14.578125 18.34375 -12.890625 C 19.90625 -11.210938 21.898438 -10.375 24.328125 -10.375 Z M 24.328125 -10.375 "/></g></g></g><g fill="#bae72a" fill-opacity="1"><g transform="translate(247.363882, 209.957997)"><g><path d="M 31.78125 -1.609375 C 30.613281 -0.878906 29.191406 -0.320312 27.515625 0.0625 C 25.835938 0.457031 24.046875 0.65625 22.140625 0.65625 C 16.972656 0.65625 13 -0.609375 10.21875 -3.140625 C 7.445312 -5.671875 6.0625 -9.445312 6.0625 -14.46875 L 6.0625 -27.765625 L 0.296875 -27.765625 L 0.296875 -38.140625 L 6.0625 -38.140625 L 6.0625 -48.453125 L 19.953125 -48.453125 L 19.953125 -38.140625 L 29.015625 -38.140625 L 29.015625 -27.765625 L 19.953125 -27.765625 L 19.953125 -14.609375 C 19.953125 -13.203125 20.328125 -12.09375 21.078125 -11.28125 C 21.835938 -10.476562 22.847656 -10.078125 24.109375 -10.078125 C 25.722656 -10.078125 27.140625 -10.492188 28.359375 -11.328125 Z M 31.78125 -1.609375 "/></g></g></g><g fill="#bae72a" fill-opacity="1"><g transform="translate(274.470505, 209.957997)"><g><path d="M 44.9375 -19.734375 C 44.9375 -19.628906 44.863281 -18.484375 44.71875 -16.296875 L 15.9375 -16.296875 C 16.519531 -14.253906 17.648438 -12.679688 19.328125 -11.578125 C 21.003906 -10.484375 23.113281 -9.9375 25.65625 -9.9375 C 27.550781 -9.9375 29.191406 -10.203125 30.578125 -10.734375 C 31.972656 -11.273438 33.375 -12.15625 34.78125 -13.375 L 42.09375 -5.765625 C 38.238281 -1.484375 32.613281 0.65625 25.21875 0.65625 C 20.582031 0.65625 16.507812 -0.21875 13 -1.96875 C 9.5 -3.726562 6.785156 -6.164062 4.859375 -9.28125 C 2.929688 -12.394531 1.96875 -15.925781 1.96875 -19.875 C 1.96875 -23.769531 2.90625 -27.265625 4.78125 -30.359375 C 6.65625 -33.453125 9.25 -35.875 12.5625 -37.625 C 15.875 -39.382812 19.601562 -40.265625 23.75 -40.265625 C 27.695312 -40.265625 31.273438 -39.445312 34.484375 -37.8125 C 37.703125 -36.1875 40.25 -33.828125 42.125 -30.734375 C 44 -27.640625 44.9375 -23.972656 44.9375 -19.734375 Z M 23.828125 -30.40625 C 21.679688 -30.40625 19.890625 -29.796875 18.453125 -28.578125 C 17.015625 -27.359375 16.101562 -25.703125 15.71875 -23.609375 L 31.9375 -23.609375 C 31.539062 -25.703125 30.625 -27.359375 29.1875 -28.578125 C 27.75 -29.796875 25.960938 -30.40625 23.828125 -30.40625 Z M 23.828125 -30.40625 "/></g></g></g><g fill="#bae72a" fill-opacity="1"><g transform="translate(315.825156, 209.957997)"><g><path d="M 18.859375 0.65625 C 15.546875 0.65625 12.28125 0.28125 9.0625 -0.46875 C 5.84375 -1.226562 3.257812 -2.21875 1.3125 -3.4375 L 5.484375 -12.9375 C 7.285156 -11.8125 9.425781 -10.921875 11.90625 -10.265625 C 14.394531 -9.609375 16.859375 -9.28125 19.296875 -9.28125 C 21.535156 -9.28125 23.128906 -9.507812 24.078125 -9.96875 C 25.023438 -10.4375 25.5 -11.109375 25.5 -11.984375 C 25.5 -12.859375 24.925781 -13.476562 23.78125 -13.84375 C 22.632812 -14.207031 20.820312 -14.5625 18.34375 -14.90625 C 15.175781 -15.300781 12.484375 -15.8125 10.265625 -16.4375 C 8.046875 -17.070312 6.132812 -18.242188 4.53125 -19.953125 C 2.925781 -21.660156 2.125 -24.046875 2.125 -27.109375 C 2.125 -29.640625 2.878906 -31.890625 4.390625 -33.859375 C 5.898438 -35.835938 8.101562 -37.398438 11 -38.546875 C 13.894531 -39.691406 17.363281 -40.265625 21.40625 -40.265625 C 24.28125 -40.265625 27.128906 -39.972656 29.953125 -39.390625 C 32.785156 -38.804688 35.148438 -37.976562 37.046875 -36.90625 L 32.890625 -27.484375 C 29.378906 -29.429688 25.578125 -30.40625 21.484375 -30.40625 C 19.296875 -30.40625 17.6875 -30.144531 16.65625 -29.625 C 15.632812 -29.113281 15.125 -28.445312 15.125 -27.625 C 15.125 -26.695312 15.679688 -26.050781 16.796875 -25.6875 C 17.921875 -25.320312 19.773438 -24.941406 22.359375 -24.546875 C 25.628906 -24.066406 28.332031 -23.507812 30.46875 -22.875 C 32.613281 -22.238281 34.476562 -21.078125 36.0625 -19.390625 C 37.644531 -17.710938 38.4375 -15.363281 38.4375 -12.34375 C 38.4375 -9.863281 37.679688 -7.632812 36.171875 -5.65625 C 34.660156 -3.6875 32.429688 -2.140625 29.484375 -1.015625 C 26.535156 0.0976562 22.992188 0.65625 18.859375 0.65625 Z M 18.859375 0.65625 "/></g></g></g><g fill="#ffffff" fill-opacity="1"><g transform="translate(139.67223, 211.163891)"><g><path d="M 4.296875 -43 L 16.46875 -43 L 16.46875 0 L 4.296875 0 Z M 4.296875 -43 "/></g></g></g><g fill="#ffffff" fill-opacity="1"><g transform="translate(18.264823, 210.783767)"><g><path d="M 5.34375 -53.375 L 30.578125 -53.375 C 36.421875 -53.375 41.601562 -52.28125 46.125 -50.09375 C 50.65625 -47.90625 54.164062 -44.800781 56.65625 -40.78125 C 59.144531 -36.769531 60.390625 -32.070312 60.390625 -26.6875 C 60.390625 -21.300781 59.144531 -16.597656 56.65625 -12.578125 C 54.164062 -8.566406 50.65625 -5.46875 46.125 -3.28125 C 41.601562 -1.09375 36.421875 0 30.578125 0 L 5.34375 0 Z M 29.96875 -12.046875 C 34.539062 -12.046875 38.210938 -13.34375 40.984375 -15.9375 C 43.753906 -18.53125 45.140625 -22.113281 45.140625 -26.6875 C 45.140625 -31.257812 43.753906 -34.84375 40.984375 -37.4375 C 38.210938 -40.03125 34.539062 -41.328125 29.96875 -41.328125 L 20.4375 -41.328125 L 20.4375 -12.046875 Z M 29.96875 -12.046875 "/></g></g></g><g fill="#ffffff" fill-opacity="1"><g transform="translate(75.440834, 210.783767)"><g><path d="M 46.890625 -20.59375 C 46.890625 -20.488281 46.816406 -19.289062 46.671875 -17 L 16.625 -17 C 17.226562 -14.863281 18.40625 -13.222656 20.15625 -12.078125 C 21.914062 -10.941406 24.117188 -10.375 26.765625 -10.375 C 28.742188 -10.375 30.457031 -10.648438 31.90625 -11.203125 C 33.351562 -11.765625 34.816406 -12.679688 36.296875 -13.953125 L 43.921875 -6.03125 C 39.898438 -1.550781 34.03125 0.6875 26.3125 0.6875 C 21.476562 0.6875 17.226562 -0.222656 13.5625 -2.046875 C 9.90625 -3.878906 7.070312 -6.421875 5.0625 -9.671875 C 3.0625 -12.929688 2.0625 -16.617188 2.0625 -20.734375 C 2.0625 -24.804688 3.039062 -28.457031 5 -31.6875 C 6.957031 -34.914062 9.660156 -37.441406 13.109375 -39.265625 C 16.566406 -41.097656 20.457031 -42.015625 24.78125 -42.015625 C 28.894531 -42.015625 32.628906 -41.160156 35.984375 -39.453125 C 39.335938 -37.753906 41.992188 -35.289062 43.953125 -32.0625 C 45.910156 -28.832031 46.890625 -25.007812 46.890625 -20.59375 Z M 24.859375 -31.71875 C 22.617188 -31.71875 20.75 -31.082031 19.25 -29.8125 C 17.75 -28.539062 16.796875 -26.8125 16.390625 -24.625 L 33.328125 -24.625 C 32.921875 -26.8125 31.96875 -28.539062 30.46875 -29.8125 C 28.96875 -31.082031 27.097656 -31.71875 24.859375 -31.71875 Z M 24.859375 -31.71875 "/></g></g></g><g fill="#ffffff" fill-opacity="1"><g transform="translate(118.589406, 210.783767)"><g><path d="M 4.65625 -56.578125 L 19.140625 -56.578125 L 19.140625 0 L 4.65625 0 Z M 4.65625 -56.578125 "/></g></g></g></svg>