<?xml version="1.0" encoding="UTF-8"?>
<svg version="1.1" viewBox="0 0 2048 2048" width="1280" height="1280" xmlns="http://www.w3.org/2000/svg">
<path transform="translate(0)" d="m0 0h2048v2048h-2048z" fill="#FEFEFE"/>
<path transform="translate(523,758)" d="m0 0h24l27 4 19 5 21 8 23 12 17 12 13 11 11 11 9 11 13 18 13 25 8 22 4 16v7l2 5 2 21-1 24-4 24-5 19-8 20-10 20-12 17-12 14-15 15-20 15-23 13-22 9-22 6-29 4h-27l-30-5-20-6-25-11-17-10-13-10-11-9-13-13-9-11-11-16-8-14-10-22-6-19-5-30v-36l4-25 6-20 8-20 11-20 7-10 7-9 9-10 10-11 14-11 9-7 15-9 17-9 24-8 23-5z"/>
<path transform="translate(1479,758)" d="m0 0h18l20 2 25 5 22 8 22 11 18 12 11 9 13 12 7 7 13 17 10 16 8 16 5 12 6 20 3 16 2 10 1 17v12l-1 15-5 24-7 23-7 16-9 16-8 12-11 14-7 8-8 7-9 8-15 11-21 12-19 8-18 6-21 4-15 2h-28l-26-4-18-5-24-9-23-13-19-14-13-12-12-13-13-18-12-21-10-25-4-13-5-29v-35l4-25 5-18 8-20 7-14 10-16 9-12 11-13 8-8 14-11 15-11 22-12 25-9 20-5z"/>
<path transform="translate(1e3 758)" d="m0 0h21l18 2 15 3 21 6 15 6 23 12 10 7 13 10 13 12 7 7 11 14 10 15 13 25 7 21 5 20 2 16v35l-3 22-8 28-8 19-10 18-14 19-14 15-9 9-13 10-19 12-16 8-14 6-20 6-24 4-7 1h-26l-24-3-21-5-16-6-18-8-17-10-12-9-14-12-11-11-11-14-6-8-9-15-10-21-7-21-4-22-2-14v-29l3-22 4-18 10-27 15-27 11-14 7-8 8-9 8-7 12-10 15-10 20-11 21-8 24-6z"/>
</svg>
